<svg id="avatar" xmlns="http://www.w3.org/2000/svg" width="21.134" height="24.976" viewBox="0 0 21.134 24.976">
  <g id="Grupo_11" data-name="Grupo 11" transform="translate(0)">
    <path id="Caminho_30" data-name="Caminho 30" d="M53.717,11.581a6.4,6.4,0,1,0-7.531,0,10.584,10.584,0,0,0-6.8,9.873,3.526,3.526,0,0,0,3.522,3.522H57a3.526,3.526,0,0,0,3.522-3.522A10.584,10.584,0,0,0,53.717,11.581ZM45.469,6.4a4.483,4.483,0,1,1,4.483,4.483A4.488,4.488,0,0,1,45.469,6.4ZM57,23.055H42.907a1.6,1.6,0,0,1-1.6-1.6,8.646,8.646,0,0,1,17.291,0A1.6,1.6,0,0,1,57,23.055Z" transform="translate(-39.385)" fill="rgb(58, 58, 140)"/>
  </g>
</svg>
